<svg id="Logo" xmlns="http://www.w3.org/2000/svg" xmlns:xlink="http://www.w3.org/1999/xlink" width="53.14" height="78.535" viewBox="0 0 53.14 78.535">
  <defs>
    <clipPath id="clip-path">
      <rect id="Retângulo_3" data-name="Retângulo 3" width="53.14" height="78.535" fill="none"/>
    </clipPath>
  </defs>
  <g id="Grupo_2" data-name="Grupo 2">
    <g id="Grupo_1" data-name="Grupo 1" clip-path="url(#clip-path)">
      <path id="Caminho_1" data-name="Caminho 1" d="M46.37,90.941a.361.361,0,0,1-.137-.085c-.036-.036-.075-.069-.112-.1a22.841,22.841,0,0,0-9.341-4.234c-.434-.023-.869-.046-1.3-.105a.329.329,0,0,1-.128-.045c-3.582-.245-6.754-1.228-8.01-7.149l-8.819.735c0,3.027,2.574,7.276,5.867,10.579a.389.389,0,0,1,.08.077l0,0a.281.281,0,0,1,.142.143,23.83,23.83,0,0,0,3.279,2.71c.364.2.726.4,1.075.594l.19.105c.706.328,1.431.624,2.167.9a13.322,13.322,0,0,0,3.295.507,15.2,15.2,0,0,1,4.982.913,17.871,17.871,0,0,0-1.141-4.2,7.358,7.358,0,0,0-3.376-3.646c-.408-.216-.046-.833.362-.618A7.951,7.951,0,0,1,39.023,91.8a19.532,19.532,0,0,1,1.35,5.037,4.41,4.41,0,0,1,2.583,3.877c.03.937.184,11.025.184,11.025h.01c.105,2.248,2.481,3.858,4.951,3.858a4.415,4.415,0,0,0,4.216-4.41h.01V100.166c-.125-3.4-2.665-6.7-5.957-9.224" transform="translate(-8.665 -37.064)" fill="#4744a6"/>
      <path id="Caminho_2" data-name="Caminho 2" d="M46.771,93.92a15.261,15.261,0,0,0-2.814-.914c-1.029-.226-2.066-.159-3.1-.3a.337.337,0,0,1-.105-.037l-.132.009c-3.123.184-7.237,1.9-10.605,4.433a24.318,24.318,0,0,0,3.688,3.425,10.972,10.972,0,0,0,3.715,1.959,16.424,16.424,0,0,1,4.2-.636,13.337,13.337,0,0,0,3.1-.457,15.109,15.109,0,0,0-.88-2.834,7.357,7.357,0,0,0-3.376-3.646c-.409-.216-.046-.833.362-.618A7.953,7.953,0,0,1,44.4,98.1a15.676,15.676,0,0,1,1,3.113l.086-.025.007,0a7.669,7.669,0,0,0,1.653-.679,22.063,22.063,0,0,0,4.418-3.4,16.174,16.174,0,0,0-4.789-3.182" transform="translate(-14.041 -43.357)" fill="#4744a6"/>
      <path id="Caminho_3" data-name="Caminho 3" d="M56.359,86.072a16.25,16.25,0,0,1,2.771.937A16.736,16.736,0,0,1,64.064,90.3C67.247,87.035,69.7,82.91,69.7,79.954l-8.819-.735c-.917,4.322-2.855,6.012-5.228,6.706.236.042.471.092.7.147" transform="translate(-26.04 -37.064)" fill="#4744a6"/>
      <path id="Caminho_4" data-name="Caminho 4" d="M27.928,105.422a24.446,24.446,0,0,1-3.853-3.587c-3.095,2.478-5.437,5.648-5.556,8.912v11.024h.01a4.415,4.415,0,0,0,4.216,4.41c2.47,0,4.846-1.611,4.951-3.859h.01s.154-10.088.184-11.024a4.584,4.584,0,0,1,3.1-4.126,11.729,11.729,0,0,1-3.057-1.751" transform="translate(-8.665 -47.646)" fill="#4744a6"/>
    </g>
  </g>
  <g id="Grupo_4" data-name="Grupo 4">
    <g id="Grupo_3" data-name="Grupo 3" clip-path="url(#clip-path)">
      <path id="Caminho_5" data-name="Caminho 5" d="M25.666,77.215a5.118,5.118,0,0,1,.354,1.83,2.176,2.176,0,0,1-.076.636A5.931,5.931,0,0,1,19.777,84.1s-6.569.938-7.585-4.112a.833.833,0,0,1,1.086-.943,18.825,18.825,0,0,0,5.765,1.013,5.369,5.369,0,0,0,5.1-2.885.832.832,0,0,1,1.521.038" transform="translate(-5.696 -35.886)" fill="#fff"/>
      <path id="Caminho_6" data-name="Caminho 6" d="M25.666,77.215a5.118,5.118,0,0,1,.354,1.83,2.176,2.176,0,0,1-.076.636A5.931,5.931,0,0,1,19.777,84.1s-6.569.938-7.585-4.112a.833.833,0,0,1,1.086-.943,18.825,18.825,0,0,0,5.765,1.013,5.369,5.369,0,0,0,5.1-2.885A.832.832,0,0,1,25.666,77.215Z" transform="translate(-5.696 -35.886)" fill="none" stroke="#4744a6" stroke-width="1"/>
      <path id="Caminho_7" data-name="Caminho 7" d="M16.408,62.366A4.831,4.831,0,0,1,11.486,67.1a4.737,4.737,0,1,1,0-9.467,4.831,4.831,0,0,1,4.923,4.733" transform="translate(-3.071 -26.965)" fill="#fff"/>
      <ellipse id="Elipse_1" data-name="Elipse 1" cx="4.923" cy="4.733" rx="4.923" ry="4.733" transform="translate(3.492 30.668)" fill="none" stroke="#4744a6" stroke-width="1"/>
      <path id="Caminho_8" data-name="Caminho 8" d="M5.85,49.716s-.379,8.709,8.33,8.33c0,0,7.952,1.136,9.088-7.573a11.578,11.578,0,0,0-.6-4.888,5.128,5.128,0,0,1-.54-2.207V42.355a7.727,7.727,0,0,1,.735-3.29l2.294-4.875s1.616-4.847-3.214-5.586a2.907,2.907,0,0,0-2.467.789c-1.575,1.538-4.21,5.4-4.035,13.909,0,0-3.159,4.9-2.78,9.821" transform="translate(-2.736 -13.368)" fill="#fff"/>
      <path id="Caminho_9" data-name="Caminho 9" d="M5.85,49.716s-.379,8.709,8.33,8.33c0,0,7.952,1.136,9.088-7.573a11.578,11.578,0,0,0-.6-4.888,5.128,5.128,0,0,1-.54-2.207V42.355a7.727,7.727,0,0,1,.735-3.29l2.294-4.875s1.616-4.847-3.214-5.586a2.907,2.907,0,0,0-2.467.789c-1.575,1.538-4.21,5.4-4.035,13.909,0,0-3.159,4.9-2.78,9.821" transform="translate(-2.736 -13.368)" fill="none" stroke="#4744a6" stroke-width="1"/>
      <path id="Caminho_10" data-name="Caminho 10" d="M7.972,55.726c.371,2.693-.605,5.053-2.179,5.269S2.642,59.2,2.271,56.511s.605-5.053,2.18-5.269S7.6,53.033,7.972,55.726" transform="translate(-1.026 -23.967)" fill="#fff"/>
      <path id="Caminho_11" data-name="Caminho 11" d="M7.972,55.726c.371,2.693-.605,5.053-2.179,5.269S2.642,59.2,2.271,56.511s.605-5.053,2.18-5.269S7.6,53.033,7.972,55.726Z" transform="translate(-1.026 -23.967)" fill="none" stroke="#4744a6" stroke-width="1"/>
      <path id="Caminho_12" data-name="Caminho 12" d="M18.428,52.446c.371,2.693-.605,5.053-2.179,5.269s-3.151-1.791-3.522-4.484.605-5.053,2.18-5.269,3.151,1.791,3.522,4.484" transform="translate(-5.918 -22.433)" fill="#f2d0a7"/>
      <path id="Caminho_13" data-name="Caminho 13" d="M18.428,52.446c.371,2.693-.605,5.053-2.179,5.269s-3.151-1.791-3.522-4.484.605-5.053,2.18-5.269S18.057,49.753,18.428,52.446Z" transform="translate(-5.918 -22.433)" fill="#fff" stroke="#4744a6" stroke-width="1"/>
      <path id="Caminho_14" data-name="Caminho 14" d="M20.333,58.322l-3.615-2.169a1.363,1.363,0,0,0-.413-.164c-.765-.169-3.135-.492-3.9,1.738a.887.887,0,0,1-.841.594H9.9a1.007,1.007,0,0,0-.808.4,2.5,2.5,0,0,0,.355,3.614s5.966,3.557,7.481-1.744" transform="translate(-3.965 -26.139)" fill="#fff"/>
      <path id="Caminho_15" data-name="Caminho 15" d="M20.333,58.322l-3.615-2.169a1.363,1.363,0,0,0-.413-.164c-.765-.169-3.135-.492-3.9,1.738a.887.887,0,0,1-.841.594H9.9a1.007,1.007,0,0,0-.808.4,2.5,2.5,0,0,0,.355,3.614s5.966,3.557,7.481-1.744" transform="translate(-3.965 -26.139)" fill="none" stroke="#4744a6" stroke-width="1"/>
      <path id="Caminho_16" data-name="Caminho 16" d="M61.945,75.143a5.123,5.123,0,0,0-.354,1.831,2.172,2.172,0,0,0,.076.635,5.931,5.931,0,0,0,6.167,4.424s6.569.939,7.585-4.112a.832.832,0,0,0-1.086-.943,18.825,18.825,0,0,1-5.765,1.013,5.37,5.37,0,0,1-5.1-2.885.832.832,0,0,0-1.521.038" transform="translate(-28.816 -34.917)" fill="#fff"/>
      <path id="Caminho_17" data-name="Caminho 17" d="M61.945,75.143a5.123,5.123,0,0,0-.354,1.831,2.172,2.172,0,0,0,.076.635,5.931,5.931,0,0,0,6.167,4.424s6.569.939,7.585-4.112a.832.832,0,0,0-1.086-.943,18.825,18.825,0,0,1-5.765,1.013,5.37,5.37,0,0,1-5.1-2.885A.832.832,0,0,0,61.945,75.143Z" transform="translate(-28.816 -34.917)" fill="none" stroke="#4744a6" stroke-width="1"/>
      <path id="Caminho_18" data-name="Caminho 18" d="M74.72,60.294a4.926,4.926,0,1,0,4.923-4.733,4.831,4.831,0,0,0-4.923,4.733" transform="translate(-34.96 -25.996)" fill="#fff"/>
      <ellipse id="Elipse_2" data-name="Elipse 2" cx="4.923" cy="4.733" rx="4.923" ry="4.733" transform="translate(39.761 29.565)" fill="none" stroke="#4744a6" stroke-width="1"/>
      <path id="Caminho_19" data-name="Caminho 19" d="M76.726,47.644s.379,8.709-8.33,8.33c0,0-7.952,1.136-9.088-7.573a11.578,11.578,0,0,1,.6-4.888,5.128,5.128,0,0,0,.54-2.207V40.283a7.727,7.727,0,0,0-.735-3.29l-2.294-4.875s-1.616-4.847,3.214-5.586a2.907,2.907,0,0,1,2.467.789c1.575,1.538,4.21,5.4,4.035,13.909,0,0,3.159,4.9,2.78,9.821" transform="translate(-26.741 -12.398)" fill="#fff"/>
      <path id="Caminho_20" data-name="Caminho 20" d="M76.726,47.644s.379,8.709-8.33,8.33c0,0-7.952,1.136-9.088-7.573a11.578,11.578,0,0,1,.6-4.888,5.128,5.128,0,0,0,.54-2.207V40.283a7.727,7.727,0,0,0-.735-3.29l-2.294-4.875s-1.616-4.847,3.214-5.586a2.907,2.907,0,0,1,2.467.789c1.575,1.538,4.21,5.4,4.035,13.909,0,0,3.159,4.9,2.78,9.821" transform="translate(-26.741 -12.398)" fill="none" stroke="#4744a6" stroke-width="1"/>
      <path id="Caminho_21" data-name="Caminho 21" d="M86.662,53.655c-.371,2.693.605,5.053,2.179,5.269s3.151-1.791,3.522-4.484-.605-5.053-2.18-5.269-3.151,1.791-3.522,4.484" transform="translate(-40.51 -22.998)" fill="#fff"/>
      <path id="Caminho_22" data-name="Caminho 22" d="M86.662,53.655c-.371,2.693.605,5.053,2.179,5.269s3.151-1.791,3.522-4.484-.605-5.053-2.18-5.269S87.033,50.962,86.662,53.655Z" transform="translate(-40.51 -22.998)" fill="none" stroke="#4744a6" stroke-width="1"/>
      <path id="Caminho_23" data-name="Caminho 23" d="M76.206,50.374c-.371,2.693.605,5.053,2.179,5.269s3.151-1.791,3.522-4.484-.605-5.053-2.18-5.269-3.151,1.791-3.522,4.484" transform="translate(-35.618 -21.463)" fill="#fff"/>
      <path id="Caminho_24" data-name="Caminho 24" d="M76.206,50.374c-.371,2.693.605,5.053,2.179,5.269s3.151-1.791,3.522-4.484-.605-5.053-2.18-5.269S76.577,47.681,76.206,50.374Z" transform="translate(-35.618 -21.463)" fill="none" stroke="#4744a6" stroke-width="1"/>
      <path id="Caminho_25" data-name="Caminho 25" d="M69.027,56.25l3.615-2.169a1.362,1.362,0,0,1,.413-.164c.765-.169,3.135-.492,3.9,1.738a.887.887,0,0,0,.841.594h1.663a1.007,1.007,0,0,1,.808.4,2.5,2.5,0,0,1-.355,3.614s-5.966,3.557-7.481-1.744" transform="translate(-32.296 -25.17)" fill="#fff"/>
      <path id="Caminho_26" data-name="Caminho 26" d="M69.027,56.25l3.615-2.169a1.362,1.362,0,0,1,.413-.164c.765-.169,3.135-.492,3.9,1.738a.887.887,0,0,0,.841.594h1.663a1.007,1.007,0,0,1,.808.4,2.5,2.5,0,0,1-.355,3.614s-5.966,3.557-7.481-1.744" transform="translate(-32.296 -25.17)" fill="none" stroke="#4744a6" stroke-width="1"/>
      <line id="Linha_1" data-name="Linha 1" x1="4.046" y2="9.195" transform="translate(16.65 2.419)" fill="#4744a6"/>
      <line id="Linha_2" data-name="Linha 2" x1="4.046" y2="9.195" transform="translate(16.65 2.419)" fill="none" stroke="#4744a6" stroke-width="1"/>
      <line id="Linha_3" data-name="Linha 3" x2="2.513" y2="9.726" transform="translate(9.107 2.279)" fill="#4744a6"/>
      <line id="Linha_4" data-name="Linha 4" x2="2.513" y2="9.726" transform="translate(9.107 2.279)" fill="none" stroke="#4744a6" stroke-width="1"/>
      <line id="Linha_5" data-name="Linha 5" x2="6.349" y2="7.785" transform="translate(0.206 6.557)" fill="#4744a6"/>
      <line id="Linha_6" data-name="Linha 6" x2="6.349" y2="7.785" transform="translate(0.206 6.557)" fill="none" stroke="#4744a6" stroke-width="1"/>
      <line id="Linha_7" data-name="Linha 7" x1="0.182" y2="10.044" transform="translate(34.69 0.005)" fill="#4744a6"/>
      <line id="Linha_8" data-name="Linha 8" x1="0.182" y2="10.044" transform="translate(34.69 0.005)" fill="none" stroke="#4744a6" stroke-width="1"/>
      <line id="Linha_9" data-name="Linha 9" x1="9.028" y2="4.405" transform="translate(43.995 8.892)" fill="#4744a6"/>
      <line id="Linha_10" data-name="Linha 10" x1="9.028" y2="4.405" transform="translate(43.995 8.892)" fill="none" stroke="#4744a6" stroke-width="1"/>
      <line id="Linha_11" data-name="Linha 11" x1="4.365" y2="9.048" transform="translate(39.902 1.299)" fill="#4744a6"/>
      <line id="Linha_12" data-name="Linha 12" x1="4.365" y2="9.048" transform="translate(39.902 1.299)" fill="none" stroke="#4744a6" stroke-width="1"/>
    </g>
  </g>
</svg>
