<svg xmlns="http://www.w3.org/2000/svg" width="40" height="40" viewBox="0 0 40 40">
  <g id="Grupo_6" data-name="Grupo 6" transform="translate(-1737 -41)">
    <g id="Elipse_3" data-name="Elipse 3" transform="translate(1737 41)" fill="#fff" stroke="#4744a6" stroke-width="1">
      <circle cx="20" cy="20" r="20" stroke="none"/>
      <circle cx="20" cy="20" r="19.5" fill="none"/>
    </g>
    <path id="user-solid" d="M10.331,11.806a5.9,5.9,0,1,0-5.9-5.9A5.9,5.9,0,0,0,10.331,11.806ZM8.223,14.02A8.221,8.221,0,0,0,0,22.243a1.37,1.37,0,0,0,1.37,1.37H19.291a1.37,1.37,0,0,0,1.37-1.37,8.221,8.221,0,0,0-8.223-8.223Z" transform="translate(1746.669 49.194)" fill="#4744a6"/>
  </g>
</svg>
